<svg xmlns="http://www.w3.org/2000/svg" viewBox="0 0 566.26 573.04"><defs><style>.cls-1{opacity:0.5;}.cls-2{fill:#3d5361;}.cls-3{fill:#fff;}.cls-4{fill:#a7a9ac;}</style></defs><rect class="cls-2" width="566.26" height="573.04"/><path class="cls-3" d="M189,170.27v-3H289.29a194,194,0,0,1,38.81,3.63,164.67,164.67,0,0,1,31.83,9.64,134.87,134.87,0,0,1,24.32,13.17,114.3,114.3,0,0,1,17.33,14.59,130.79,130.79,0,0,1,21,27.49,128.73,128.73,0,0,1,13,31.92A138.66,138.66,0,0,1,440,302.36a133,133,0,0,1-4.24,33.95,120.21,120.21,0,0,1-12.21,29.8,121.78,121.78,0,0,1-19,24.84,136.53,136.53,0,0,1-25.73,20.16,121.18,121.18,0,0,1-28.82,12q-16.26,4.59-44,4.59H189V424.9h3.53q12.21,0,18.22-9.19a35,35,0,0,0,6-19.45V199.62q0-9.9-3.27-16.62a21.19,21.19,0,0,0-8.75-9.72,24.94,24.94,0,0,0-12.21-3Zm54.64,9.37V386q0,15.21,4.86,22.37t15.12,9.28q10.26,2.13,30.06,2.13,28.29,0,47.74-5.57t37.67-24.85q13.44-14.33,21.57-35t8.14-50a165.14,165.14,0,0,0-6.55-45.89,121.71,121.71,0,0,0-20-40.41,103.46,103.46,0,0,0-38.64-31.3q-23.6-11.31-56.85-11.31Q269.66,175.4,243.67,179.64Z" transform="translate(4.15 6.52)"/><path class="cls-4" d="M354.56,143.13h-4.72q-4.12-31.53-27.55-55.26T260.55,64.15q-25.06,0-44.51,11.79A80.39,80.39,0,0,0,186,108.06q-10.6,20.34-10.61,46.57,0,20.33,6.34,36.1a80.32,80.32,0,0,0,18.72,27.85,170.74,170.74,0,0,0,29.17,22.55Q246.4,251.58,275,267.5q47.75,26.24,74.27,52.32t26.52,71.46q0,27.72-14.29,53.5t-43.18,42.29q-28.89,16.5-71.61,16.5-26.83,0-47.45-5.75a247.39,247.39,0,0,1-41.85-16.06q-8.85-2.94-12.09-2.94c-4.12,0-6.83,1.47-8.1,4.42s-3,9.33-5.16,19.15h-5V393.64h5q10.6,47.75,41.26,72.21t74.56,24.46q33,0,52.9-12.38t27.56-30.06A88.31,88.31,0,0,0,336,412.5q0-36.54-22.25-59.68t-67.64-47.3Q214.87,288.44,199.84,279a186.85,186.85,0,0,1-30.51-24.46A113.35,113.35,0,0,1,144.72,219q-9.14-20.47-9.13-47,0-30.66,16.21-58.65t46-44.95q29.76-16.94,67.49-16.94a190.07,190.07,0,0,1,58.65,9.72q4.71,2.37,12.67,2.36,9.74,0,13.26-13.26h4.72Z" transform="translate(4.15 6.52)"/><path class="cls-3" d="M243.75,378.2V321.31c-9-.33-17.93-.74-26.88-1.3v52.07Q230.21,375.71,243.75,378.2Z" transform="translate(4.15 6.52)"/><path class="cls-3" d="M204.85,174.3c4.39,1.92,9.39,4.85,9.82,10.16,2.2,27.43,2.2,68.31,2.2,136.48,0,0,17.91,1,26.88,1.3V180.66c75.2-18.37,151.94,16,162.38,95.2,5.07-11.18,12.48-20.45,22.66-26.84-36-94-157.9-81.46-239.68-80.74v3C194.52,171.08,200.31,171.63,204.85,174.3Z" transform="translate(4.15 6.52)"/></svg>