<svg xmlns="http://www.w3.org/2000/svg" viewBox="0 0 31.18 36"><defs><style>.cls-1{opacity:0.5;}.cls-2{fill:#3d5361;}.cls-3{fill:#fff;}.cls-4{fill:#bcbec0;}</style></defs><rect class="cls-2" width="31.18" height="36"/><path class="cls-3" d="M362.74,333.77v-.2h6.47a12.19,12.19,0,0,1,2.5.24,10.2,10.2,0,0,1,2.06.62,8.74,8.74,0,0,1,1.56.85,6.85,6.85,0,0,1,1.12.94,8.34,8.34,0,0,1,1.36,1.77,8.58,8.58,0,0,1,.84,2.06,9.23,9.23,0,0,1,.28,2.24,8.22,8.22,0,0,1-.28,2.19,7.74,7.74,0,0,1-.78,1.92,8,8,0,0,1-1.23,1.6,8.38,8.38,0,0,1-1.66,1.3,7.88,7.88,0,0,1-1.86.78,10.74,10.74,0,0,1-2.84.3h-7.54v-.19H363a1.29,1.29,0,0,0,1.17-.59,2.22,2.22,0,0,0,.39-1.25V335.66a2.43,2.43,0,0,0-.21-1.07,1.36,1.36,0,0,0-.57-.63,1.55,1.55,0,0,0-.78-.19Zm3.52.6v13.31a2.62,2.62,0,0,0,.32,1.45,1.46,1.46,0,0,0,1,.6,10.51,10.51,0,0,0,1.94.13,11.27,11.27,0,0,0,3.08-.36,5.44,5.44,0,0,0,2.43-1.6,6.93,6.93,0,0,0,1.4-2.26,9,9,0,0,0,.52-3.23,10.74,10.74,0,0,0-.42-3,7.82,7.82,0,0,0-1.29-2.6,6.66,6.66,0,0,0-2.49-2,8.4,8.4,0,0,0-3.67-.73A18.19,18.19,0,0,0,366.26,334.37Z" transform="translate(-352.95 -322.78)"/><path class="cls-4" d="M373.42,332h-.31a6.08,6.08,0,0,0-1.77-3.57,5.37,5.37,0,0,0-4-1.53,5.42,5.42,0,0,0-2.87.76,5.29,5.29,0,0,0-1.94,2.07,6.51,6.51,0,0,0-.68,3,6.09,6.09,0,0,0,.41,2.33,5.22,5.22,0,0,0,1.2,1.79,11.1,11.1,0,0,0,1.89,1.46c.72.45,1.7,1,2.93,1.7a22.08,22.08,0,0,1,4.79,3.37,6.2,6.2,0,0,1,1.71,4.62,7,7,0,0,1-3.71,6.17,9.18,9.18,0,0,1-4.62,1.07,11.35,11.35,0,0,1-3.06-.37,15.58,15.58,0,0,1-2.7-1,3.39,3.39,0,0,0-.78-.19.5.5,0,0,0-.52.29,7.36,7.36,0,0,0-.34,1.23h-.32v-7h.32a8,8,0,0,0,2.67,4.66,7.46,7.46,0,0,0,4.81,1.57,6.42,6.42,0,0,0,3.41-.79,4.43,4.43,0,0,0,1.78-1.94,5.72,5.72,0,0,0,.49-2.29,5.36,5.36,0,0,0-1.43-3.85,17.86,17.86,0,0,0-4.37-3.05c-1.34-.73-2.34-1.3-3-1.71a11.27,11.27,0,0,1-2-1.58,7.13,7.13,0,0,1-1.59-2.29,7.64,7.64,0,0,1,.46-6.81,7.64,7.64,0,0,1,3-2.9,8.66,8.66,0,0,1,4.36-1.1,12.17,12.17,0,0,1,3.78.63,1.88,1.88,0,0,0,.82.15c.42,0,.7-.28.85-.85h.31Z" transform="translate(-352.95 -322.78)"/><path class="cls-3" d="M366.27,347.18v-3.67l-1.73-.08v3.36C365.11,346.94,365.69,347.07,366.27,347.18Z" transform="translate(-352.95 -322.78)"/><path class="cls-3" d="M363.76,334c.28.12.61.31.63.65.15,1.77.15,4.41.15,8.81l1.73.08v-9.13c4.85-1.19,9.8,1,10.48,6.14a3.8,3.8,0,0,1,1.46-1.73c-2.32-6.07-10.19-5.26-15.47-5.21v.19A1.86,1.86,0,0,1,363.76,334Z" transform="translate(-352.95 -322.78)"/></svg>